<?xml version="1.0" encoding="utf-8"?>
<!-- Generator: Adobe Illustrator 26.0.1, SVG Export Plug-In . SVG Version: 6.00 Build 0)  -->
<svg version="1.1" id="Layer_1" xmlns="http://www.w3.org/2000/svg" xmlns:xlink="http://www.w3.org/1999/xlink" x="0px" y="0px"
	 viewBox="0 0 2409.45 1559.06" style="enable-background:new 0 0 2409.45 1559.06;" xml:space="preserve">
<style type="text/css">
	.st0{fill:#FBCCCC;}
</style>
<path class="st0" d="M1775.8,1008.78c-11.49-11.47-25.52-17.19-42.1-17.14c-16.43,0.05-30.48,6-42.12,17.85
	c-11.64,11.84-17.44,25.81-17.39,41.91c0.05,15.95,5.97,29.85,17.76,41.7s25.83,17.75,42.11,17.7c16.28-0.05,30.2-5.88,41.77-17.5
	c11.58-11.62,17.34-25.71,17.29-42.26C1793.06,1034.34,1787.29,1020.25,1775.8,1008.78z M1775.8,1008.78
	c-11.49-11.47-25.52-17.19-42.1-17.14c-16.43,0.05-30.48,6-42.12,17.85c-11.64,11.84-17.44,25.81-17.39,41.91
	c0.05,15.95,5.97,29.85,17.76,41.7s25.83,17.75,42.11,17.7c16.28-0.05,30.2-5.88,41.77-17.5c11.58-11.62,17.34-25.71,17.29-42.26
	C1793.06,1034.34,1787.29,1020.25,1775.8,1008.78z M1775.8,1008.78c-11.49-11.47-25.52-17.19-42.1-17.14
	c-16.43,0.05-30.48,6-42.12,17.85c-11.64,11.84-17.44,25.81-17.39,41.91c0.05,15.95,5.97,29.85,17.76,41.7s25.83,17.75,42.11,17.7
	c16.28-0.05,30.2-5.88,41.77-17.5c11.58-11.62,17.34-25.71,17.29-42.26C1793.06,1034.34,1787.29,1020.25,1775.8,1008.78z
	 M1775.8,1008.78c-11.49-11.47-25.52-17.19-42.1-17.14c-16.43,0.05-30.48,6-42.12,17.85c-11.64,11.84-17.44,25.81-17.39,41.91
	c0.05,15.95,5.97,29.85,17.76,41.7s25.83,17.75,42.11,17.7c16.28-0.05,30.2-5.88,41.77-17.5c11.58-11.62,17.34-25.71,17.29-42.26
	C1793.06,1034.34,1787.29,1020.25,1775.8,1008.78z M2317.3,776.78c-23.08-45.42-50.86-88.65-83.76-127.59
	c-17.27-20.31-36-39.23-54.73-58.15c-8.27-8.36-16.49-16.78-24.54-25.36c-12.18-12.98-25.44-26.61-33.44-42.72
	c-2.65-5.33-4.44-10.98-5.62-16.8c-3-14.84-2.65-30.92,5.27-44.24c7.36-12.39,19.64-21.05,31.96-28.02
	c21.44-12.13,43.56-18.81,68.25-18.6c20.14,0.18,42.1,4.42,56.2,20.02c0.42,0.47,0.83,0.94,1.23,1.42
	c13.49,16.1,21.44,36.25,29.14,55.51c5.3,13.25,15.01,35.54,25.39,38.63c10.37,3.09,16.77,2.43,21.63-0.44
	c4.85-2.87,8.61-12.03,6.29-22.63c-2.32-10.59-28.37-74.5-52.65-96.79c-17.5-16.08-37.13-28.14-60.75-32.6
	c-17.13-3.24-34.73-3.24-52.06-1.8c-16.99,1.42-34.07,3.81-50.55,8.27c-5.58,1.51-11.1,3.27-16.51,5.3
	c-27.94,10.49-51.79,28.24-60.56,57.97c-5.11,17.33-5.04,35.76-3.52,53.62c2.07,24.17,8.3,48.04,19.14,69.78
	c11.17,22.41,27.48,42.78,43.26,62.1c19.52,23.91,40.28,46.86,59.7,70.84c14.73,17.08,61.26,80.13,79.8,123.83
	c18.54,43.71-2.65,28.48-20.2,17.22c-17.55-11.26-122.18-80.19-169.86-93.41c-32.74-9.07-65.25-13.76-99.21-9.65
	c-48.14,5.82-95.13,22.42-138.08,44.53c-11.89,6.13-23.58,12.62-35.19,19.25c-8.86,5.07-17.26,10.29-27.21,12.93
	c-19.51,5.16-37.7-2.07-52.06-15.54c-0.98-0.92-1.91-1.88-2.87-2.81c-9.61-9.27-25.5-34.44-34.11-52.65
	c-8.61-18.21-29.47-61.92-53.31-83.99c-23.84-22.07-66.22-42.82-92.93-57.39c-26.71-14.57-38.85-25.17-51.88-38.41
	c-13.02-13.25-33.55-24.51-39.29-26.93c-5.74-2.43-18.1-9.05-20.97,19.2c-2.87,28.26,1.55,75.94,2.43,90.73
	c-12.14,7.5-47.24,46.35-52.54,54.74c-5.3,8.39-22.07,46.8-27.37,89.18c-14.57,13.25-20.09,31.02-19.76,40.62
	c0.33,9.6,2.98,24.5,21.19,40.39c18.22,15.9,43.38,27.82,93.71,44.71c0.33,6.62,0,13.78,0,13.78s-33.44,15.68-48.67,53.76
	c-4.97,11.59-7.95,39.72-7.95,64.84c-17.89,1.74-112.69,3.92-131.9,33.5c-6.18,9.44-17.77,31.6,9.05,52.22h1064.87
	c0,0,52.91-96.14,52.91-180.03C2384.67,892.44,2346.43,834.14,2317.3,776.78z M1616.95,1115.61c-0.9,1.06-1.95,1.59-3.16,1.6
	c-1.35,0-2.41-0.3-3.17-0.9l-1.14-3.61l-0.19-64.86c-0.06-19.89-3.21-34.19-9.45-42.9c-6.24-8.73-16.32-13.07-30.25-13.03
	c-8.79,0.03-17.53,1.56-26.23,4.61c-8.7,3.04-18.57,7.89-29.6,14.55l0.31,101.92c0,1.36-0.33,2.42-1.01,3.16
	c-0.67,0.76-1.84,1.22-3.5,1.37c-1.36,0.01-2.34-0.29-2.94-0.89l-0.92-3.61l-0.29-96.72l-4.06,2.5l-4.97,2.96l-1.58,0.45l-0.68,0.46
	l-2.93,0.91l-2.04-0.67c-0.45-0.45-0.68-1.13-0.68-2.04c-0.01-1.5,0.81-3.01,2.47-4.52l0.68-0.01l0.9-0.72l4.97-3.11l7.89-5.03
	l-0.76-250.57c0-1.36,0.41-2.45,1.24-3.28c0.82-0.83,1.99-1.32,3.5-1.49c1.2,0,2.11,0.53,2.72,1.58l0.91,4.07l0.74,244.92
	c4.52-2.73,9.26-5.34,14.23-7.84c4.96-2.51,9.78-4.59,14.45-6.27c9.48-3.34,17.84-5.02,25.08-5.05
	c17.48-0.05,30.27,4.96,38.37,15.03c8.09,10.07,12.17,26.48,12.24,49.23l0.2,64.87C1618.3,1113.58,1617.85,1114.56,1616.95,1115.61z
	 M1781.96,1099.15c-6.62,6.64-13.84,11.63-21.66,14.97c-7.83,3.33-16.58,5.01-26.22,5.04c-18.54,0.06-34.53-6.59-47.99-19.94
	c-13.46-13.35-20.21-29.28-20.27-47.79c-0.05-18.36,6.45-34.29,19.53-47.8c13.07-13.51,29.18-20.3,48.32-20.35
	c18.99-0.06,35.1,6.48,48.33,19.6c13.23,13.13,19.88,29.17,19.93,48.13C1801.99,1069.82,1795.33,1085.87,1781.96,1099.15z
	 M1949.05,1102.03c-9.91,11.02-24.22,16.55-42.91,16.61c-18.39,0.06-32.65-5.32-42.78-16.13c-10.13-10.8-15.23-26.45-15.29-46.93
	l-0.2-67.96c-0.01-1.36,0.44-2.49,1.34-3.4c0.9-0.9,2.03-1.36,3.39-1.36c1.21-0.01,2.11,0.52,2.72,1.57l0.91,4.07l0.2,63.21
	c0.06,19.58,4.2,34.24,12.45,44s20.65,14.61,37.24,14.56c16.42-0.05,28.7-4.86,36.81-14.44c8.11-9.59,12.14-24.39,12.07-44.41
	l-0.19-64.13c0-1.35,0.47-2.48,1.46-3.39c0.98-0.91,2.22-1.37,3.73-1.37c1.2,0,2.11,0.52,2.71,1.57l0.92,4.07l0.2,67.06
	C1963.9,1075.41,1958.97,1091.01,1949.05,1102.03z M2106.1,997.07l-2.71,0.91l-1.13-0.22l-1.59-0.67l-2.03-1.13
	c-3.48-1.8-7.47-3.22-12-4.26c-1.96-0.44-4.07-0.81-6.33-1.11c-2.27-0.29-4.61-0.44-7.01-0.43c-13.27,0.04-24.11,3.72-32.53,11.05
	c-8.43,7.32-12.61,16.48-12.58,27.46c0.04,12.18,11.45,22.08,34.23,29.68l4.98,1.57c9.06,2.83,15.59,6.38,19.59,10.66
	c4,4.28,6.02,9.8,6.04,16.57c0.03,9.03-3.31,16.46-9.99,22.26c-6.69,5.82-15.54,8.74-26.54,8.77c-3.02,0.01-5.35-0.06-7.01-0.2
	c-1.67-0.15-4.64-0.63-8.93-1.44c-4.3-0.82-7.74-2.05-10.3-3.7l-0.91-0.45c-1.06-0.45-1.81-0.98-2.27-1.58l-0.68-2.71
	c-0.01-1.21,0.33-2.15,1.01-2.83c0.67-0.68,1.76-1.1,3.27-1.25l2.26-0.01l0.91,0.9c1.66,0.75,3.43,1.46,5.32,2.13
	c1.89,0.68,3.99,1.24,6.34,1.68c2.33,0.45,4.1,0.74,5.31,0.89c1.21,0.15,3.24,0.22,6.11,0.21c8.59-0.03,15.28-1.89,20.1-5.6
	c4.82-3.69,7.21-8.93,7.19-15.7c-0.02-5.57-1.47-9.86-4.33-12.85c-2.58-3-8.7-6.22-18.35-9.66l-5.88-2
	c-23.54-7.61-35.33-19.09-35.38-34.43c-0.04-13.54,5.13-24.84,15.5-33.9c5.1-4.38,10.97-7.71,17.61-9.98
	c6.62-2.28,14-3.44,22.14-3.46c3.92-0.01,6.67,0.09,8.26,0.31c1.58,0.23,4.37,0.82,8.37,1.79c3.99,0.96,7.27,2.27,9.84,3.92
	l1.36,0.9c1.21,0.75,2.12,1.58,2.72,2.48l1.14,2.49C2107.23,995.33,2106.85,996.31,2106.1,997.07z M2270.52,1049.14
	c-0.98,0.98-2.59,1.48-4.86,1.48l-117.57,0.36c0.06,18.02,5.53,32.26,16.41,42.74c10.89,10.48,25.52,15.69,43.91,15.64
	c8.9-0.03,17.07-1.4,24.52-4.11c7.46-2.71,16.37-8.71,26.74-18l0.9-0.46l2.26-1.57l2.03-0.68c0.91,0,1.73,0.37,2.49,1.12
	c0.6,0.3,0.99,1.12,1.14,2.47l-0.44,2.24l-1.35,2.03l-0.91,0.9c-8.26,8.26-17.22,14.38-26.85,18.38c-9.63,4-20.41,6.01-32.31,6.05
	c-20.35,0.06-36.65-6.11-48.89-18.51c-12.25-12.39-18.41-28.99-18.47-49.8c-0.06-19.44,6.34-35.66,19.18-48.67
	c12.85-13,29.07-19.53,48.67-19.59c17.48-0.05,32.65,6.33,45.5,19.14c12.85,12.82,19.31,27.32,19.35,43.5l0.01,0.91
	C2271.98,1046.67,2271.5,1048.15,2270.52,1049.14z M2245.29,1004c-10.81-9.69-23.98-14.52-39.5-14.47
	c-15.23,0.05-28.33,5.06-39.3,15.04c-10.97,9.99-17.11,22.59-18.42,37.82l115.76-0.13C2262.27,1026.44,2256.09,1013.69,2245.29,1004
	z M1733.7,991.64c-16.43,0.05-30.48,6-42.12,17.85c-11.64,11.84-17.44,25.81-17.39,41.91c0.05,15.95,5.97,29.85,17.76,41.7
	s25.83,17.75,42.11,17.7c16.28-0.05,30.2-5.88,41.77-17.5c11.58-11.62,17.34-25.71,17.29-42.26c-0.06-16.7-5.83-30.79-17.32-42.26
	C1764.31,997.31,1750.28,991.59,1733.7,991.64z M1775.8,1008.78c-11.49-11.47-25.52-17.19-42.1-17.14
	c-16.43,0.05-30.48,6-42.12,17.85c-11.64,11.84-17.44,25.81-17.39,41.91c0.05,15.95,5.97,29.85,17.76,41.7s25.83,17.75,42.11,17.7
	c16.28-0.05,30.2-5.88,41.77-17.5c11.58-11.62,17.34-25.71,17.29-42.26C1793.06,1034.34,1787.29,1020.25,1775.8,1008.78z
	 M1775.8,1008.78c-11.49-11.47-25.52-17.19-42.1-17.14c-16.43,0.05-30.48,6-42.12,17.85c-11.64,11.84-17.44,25.81-17.39,41.91
	c0.05,15.95,5.97,29.85,17.76,41.7s25.83,17.75,42.11,17.7c16.28-0.05,30.2-5.88,41.77-17.5c11.58-11.62,17.34-25.71,17.29-42.26
	C1793.06,1034.34,1787.29,1020.25,1775.8,1008.78z"/>
<path class="st0" d="M602.51,1002.52c-0.23,10.24-19.91,32.13-59.02,65.65c-39.81,33.99-67.05,50.99-81.72,50.99
	c-15.84,0-23.75-10.24-23.75-30.73c0-21.88,12.22-54.01,36.67-96.39c4.42-7.45,23.51-37.25,57.27-89.4
	c2.32-3.49,3.96-6.87,4.89-10.13l-2.1-4.89l2.79-6.64l3.49-1.4c6.05,0,12.22,2.91,18.51,8.73s9.43,11.76,9.43,17.81
	c0,10.24-17.64,40.22-52.91,89.93c-35.27,49.71-52.91,81.89-52.91,96.56c0,4.89,1.86,7.33,5.59,7.33
	c11.64,0,35.62-16.41,71.94-49.24c37.48-33.99,57.15-51.22,59.02-51.69L602.51,1002.52z"/>
<path class="st0" d="M902.14,1016.14c-0.47,11.87-17.23,31.66-50.29,59.37c-33.76,28.17-58.2,42.26-73.34,42.26
	c-10.25,0-18.74-3.49-25.49-10.48c-6.76-6.98-10.13-15.6-10.13-25.84c0-17,12.51-45.75,37.54-86.26
	c25.02-40.51,37.54-65.65,37.54-75.43c0-5.82-2.68-8.73-8.03-8.73c-23.28,0-62.51,27.08-117.69,81.23
	c-51.46,50.21-83.94,89.26-97.43,117.14c-2.79,5.58-5.01,8.37-6.64,8.37c-4.42,0-8.15-3.38-11.18-10.12
	c-2.57-5.58-3.84-10.93-3.84-16.04c0-23.96,20.31-68.31,60.94-133.07c40.63-64.76,61.06-99.23,61.29-103.41
	c-1.63-2.33-3.27-4.88-4.89-7.67l3.49-5.94c17.23,8.38,25.84,19.91,25.84,34.57c0,15.83-8.96,36.78-26.89,62.86
	c-20.49,29.8-32.01,49.59-34.57,59.37l0.7,1.4c6.75-2.79,20.37-13.97,40.86-33.53c25.14-23.98,44.12-40.63,56.92-49.94
	c23.51-17.23,43.88-25.84,61.11-25.84c9.55,0,18.33,3.9,26.37,11.7s12.05,16.47,12.05,26.02c0,15.37-11.06,42.49-33.18,81.37
	c-22.12,38.88-33.18,64.26-33.18,76.13c0,5.12,1.86,7.68,5.59,7.68c10.24,0,29.28-13.27,57.1-39.81
	c27.82-26.54,43.36-39.93,46.62-40.16L902.14,1016.14z"/>
<path class="st0" d="M1095.96,687.17c0,13.27-8.91,29.39-26.72,48.37c-17.81,18.97-32.65,28.58-44.53,28.81l-2.44-2.1
	c1.4-4.42,11.87-18.63,31.43-42.61c16.76-20.72,25.14-40.74,25.14-60.07c0-2.33,1.16-3.49,3.49-3.49c1.16,0,1.97,0.12,2.44,0.35
	C1092.23,666.92,1095.96,677.16,1095.96,687.17z"/>
<path class="st0" d="M1224.82,988.2c-1.87,7.22-15.37,22.47-40.51,45.75c-21.65,20.02-38.41,34.34-50.29,42.95
	c-26.54,40.04-60.19,60.07-100.93,60.07c-18.63,0-27.94-5.24-27.94-15.72c0-5.12,8.85-12.69,26.54-22.7
	c26.31-14.67,42.95-24.68,49.94-30.03c17.69-13.5,26.54-26.89,26.54-40.16c0-10.01-8.44-23.57-25.32-40.68
	c-16.88-17.11-25.32-33.12-25.32-48.02c0-17,10.59-33.29,31.78-48.89c19.78-14.67,38.18-22,55.18-22c5.35,0,10.88,3.2,16.59,9.6
	c5.7,6.4,8.56,12.28,8.56,17.64c0,4.66-12.87,12.92-38.59,24.79c-25.73,11.87-38.59,24.56-38.59,38.07c0,7.68,8.08,19.5,24.27,35.45
	c16.18,15.95,24.27,30.21,24.27,42.78c0,4.89-0.93,9.55-2.79,13.97l1.4,1.75c5.35-3.26,20.25-15.72,44.7-37.37l35.27-31.43
	C1222.15,984.01,1223.89,985.41,1224.82,988.2z"/>
<path class="st0" d="M632.52,807.46c4.05,0.15,7.79,1.36,9.93,4.91c5.23,8.66-5.59,17.35-12.16,22.38
	c-14.81,11.35-31.99,18.75-49.42,24.17c-0.95,0.3-1.91,0.59-2.86,0.89c-0.79,0.25-3.62-2.63-4.17-3.12
	c-11.76-10.56-10-28.7,1.25-41.09c1-1.1,2.06-2.16,3.15-3.17c5.81-5.37,13.18-9.96,21.04-9.21c2.87,0.28,5.6,1.14,8.07,2.42
	c1.3,0.67,2.53,1.46,3.69,2.34c0.36,0.28,2.89,2.86,3.15,2.82c3.09-0.46,6.03-1.78,9.09-2.43
	C626.31,807.73,629.5,807.35,632.52,807.46z"/>
<g>
	<path class="st0" d="M235.55,953.64c-16.45,33.61-35.04,70.81-52.92,105.13c40.04,22.89,77.24,34.33,117.28,34.33
		c42.01,0,86.07-11.9,123.93-29.61c9.03-4.22,17.54-9.53,24.61-16.59c5.58-5.57,10.65-11.99,17.5-16.1
		c2.83-1.7,15.09-6.65,13.78,0.85c-4.81,27.52-34.73,41.84-57.37,51.95c-19.81,8.85-40.51,15.8-61.55,21.08
		c-20.76,5.21-42.29,9.16-63.76,9.16c-42.2,0-82.25-12.16-125.16-35.75c-31.47,58.64-60.08,105.13-71.52,105.13
		c-10.01,0-17.16-15.02-23.6-29.32c-17.17-37.9-52.21-118.72-52.21-165.92c0-18.6,2.86-26.46,12.15-26.46
		c12.16,0,90.12,61.5,125.87,85.82c93.7-183.8,241.02-507.06,251.03-565.71c2.86-16.45,11.44-33.61,19.31-33.61
		c10.01,0,12.87,17.87,12.87,39.33c0,42.91-15.74,104.41-23.61,104.41c-5.01,0-5.01-18.59-7.87-18.59
		c-4.28,0-12.86,25.03-27.89,60.07C369.29,671.86,271.31,881.41,235.55,953.64z M152.58,1066.64
		c-10.72-6.44-20.73-12.87-31.47-20.74c-32.19-22.89-57.21-42.91-66.52-47.91c-1.43-0.72-2.14-0.72-2.85-0.72
		c-2.15,0-2.86,1.43-2.86,4.29c0,25.03,42.91,132.31,57.92,148.76C118.26,1131.01,133.99,1101.68,152.58,1066.64z"/>
</g>
</svg>
